# xmcd CD database file
#
# Track frame offsets:
#	150
#	8468
#	23380
#	30109
#	39335
#	54565
#	68734
#	88030
#	108598
#	134993
#	153839
#	166735
#	178966
#	191793
#
# Disc length: 2819 seconds
#
# Revision: 0
# Processed by: cddbd v1.5.1PL0 Copyright (c) Steve Scherf et al.
# Submitted via: CDex 1.51
#
DISCID=a80b010e
DTITLE=倫理研究所 - 「万人幸福の栞」Disk4
DYEAR=1900
DGENRE=Reading
TTITLE0=道義の革新
TTITLE1=修身の正体
TTITLE2=守れぬ道義
TTITLE3=旧道義
TTITLE4=得福不一致
TTITLE5=新道徳
TTITLE6=道義と幸福
TTITLE7=1.死の超剋
TTITLE8=2.生命の玄妙
TTITLE9=3.吸引放射
TTITLE10=4.死生の脱却
TTITLE11=5.世相惨絶
TTITLE12=6.宇宙永遠
TTITLE13=7.死の荘厳
EXTD=
EXTT0=
EXTT1=
EXTT2=
EXTT3=
EXTT4=
EXTT5=
EXTT6=
EXTT7=
EXTT8=
EXTT9=
EXTT10=
EXTT11=
EXTT12=
EXTT13=
PLAYORDER=
